inDegrees=yes
name=teste_pendulo.mot
DataType=double
version=3
OpenSimVersion=4.4-2022-07-23-0e9fedc
endheader
time	q1	q2
2.006710052490234	8.149069630661739	-16.39572845385338
2.015712022781372	8.149069630661739	-16.39572845385338
2.022688150405884	8.149069630661739	-16.39572845385338
2.026684045791626	8.149069630661739	-16.39572845385338
2.031686067581176	8.149069630661739	-16.39572845385338
2.035683870315551	8.149069630661739	-16.39572845385338
2.042686939239502	8.149069630661739	-16.39572845385338
2.048685073852539	8.149069630661739	-16.39572845385338
2.0556800365448	8.149069630661739	-16.39572845385338
2.059684991836548	8.149069630661739	-16.39572845385338
2.066708087921142	8.149069630661739	-16.39572845385338
2.071687936782837	8.149069630661739	-16.39572845385338
2.076716184616089	8.149069630661739	-16.39572845385338
2.081682920455932	8.149069630661739	-16.39572845385338
2.087683916091919	8.149069630661739	-16.39572845385338
2.091683864593506	8.149069630661739	-16.39572845385338
2.095685005187988	8.149069630661739	-16.39572845385338
2.101685047149658	8.149069630661739	-16.39572845385338
2.107683897018432	8.149069630661739	-16.39572845385338
2.115682125091552	8.149069630661739	-16.39572845385338
2.119682073593139	8.149069630661739	-16.39572845385338
2.125676155090332	8.165080661908501	-16.39960887413704
2.130683898925781	8.165080661908501	-16.39960887413704
2.135682106018066	8.165080661908501	-16.39960887413704
2.141701936721801	8.165080661908501	-16.39960887413704
2.145683050155639	8.165080661908501	-16.39960887413704
2.150678157806396	8.165080661908501	-16.39960887413704
2.155672073364258	8.165080661908501	-16.39960887413704
2.161669969558716	8.165080661908501	-16.39960887413704
2.167654037475586	8.165080661908501	-16.39960887413704
2.172654867172241	8.165080661908501	-16.39960887413704
2.178662061691284	8.165080661908501	-16.39960887413704
2.184742927551269	8.165080661908501	-16.39960887413704
2.190838098526001	8.165080661908501	-16.39960887413704
2.196688890457153	8.165080661908501	-16.39960887413704
2.20369005203247	8.165080661908501	-16.39960887413704
2.207681179046631	8.165080661908501	-16.39960887413704
2.211688041687011	8.165080661908501	-16.39960887413704
2.216688871383667	8.165080661908501	-16.39960887413704
2.225741147994995	8.165080661908501	-16.39960887413704
2.232686996459961	8.165080661908501	-16.39960887413704
2.237675189971924	8.165080661908501	-16.39960887413704
2.243688106536865	8.165080661908501	-16.39960887413704
2.255717992782592	8.165080661908501	-16.39960887413704
2.259717941284179	8.165080661908501	-16.39960887413704
2.26369309425354	8.165080661908501	-16.39960887413704
2.267685890197754	8.165080661908501	-16.39960887413704
2.274698972702026	8.165080661908501	-16.39960887413704
2.278711080551147	8.165080661908501	-16.39960887413704
2.283695936203003	8.165080661908501	-16.39960887413704
2.288686990737915	8.165080661908501	-16.39960887413704
2.294708967208862	8.165080661908501	-16.39960887413704
2.303708076477051	8.165080661908501	-16.39960887413704
2.308691024780273	8.165080661908501	-16.39960887413704
2.312686920166015	8.165080661908501	-16.39960887413704
2.318668127059936	8.165080661908501	-16.39960887413704
2.332696199417114	8.165080661908501	-16.39960887413704
2.336686849594116	8.165080661908501	-16.39960887413704
2.34066104888916	8.165080661908501	-16.39960887413704
2.34669017791748	8.165080661908501	-16.39960887413704
2.350680112838745	8.165080661908501	-16.39960887413704
2.356677055358886	8.165080661908501	-16.39960887413704
2.362677097320556	8.165080661908501	-16.39960887413704
2.366673946380615	8.165080661908501	-16.39960887413704
2.370672941207885	8.165080661908501	-16.39960887413704
2.375672817230224	8.165080661908501	-16.39960887413704
2.38070797920227	8.165080661908501	-16.39960887413704
2.385714054107666	8.165080661908501	-16.39960887413704
2.390683889389038	8.165080661908501	-16.39960887413704
2.397670984268188	8.165080661908501	-16.39960887413704
2.401677131652832	8.165080661908501	-16.39960887413704
2.409677982330322	8.165080661908501	-16.39960887413704
2.414666175842285	8.165080661908501	-16.39960887413704
2.42268705368042	8.165080661908501	-16.39960887413704
2.426687002182007	8.165080661908501	-16.39960887413704
2.432677030563354	8.165080661908501	-16.39960887413704
2.437681913375854	8.165080661908501	-16.39960887413704
2.445687055587768	8.165080661908501	-16.39960887413704
2.45067811012268	8.165080661908501	-16.39960887413704
2.455680131912231	8.165080661908501	-16.39960887413704
2.463683128356933	8.165080661908501	-16.39960887413704
2.467694997787475	8.165080661908501	-16.39960887413704
2.473676204681396	8.165080661908501	-16.39960887413704
2.477679967880249	8.165080661908501	-16.39960887413704
2.483748912811279	8.165080661908501	-16.39960887413704
2.489697217941284	8.153499698614498	-16.40399236598075
2.493679046630859	8.153499698614498	-16.40399236598075
2.498690128326416	8.029310336026436	-16.27752621161137
2.503710985183716	8.029310336026436	-16.27752621161137
2.509704113006592	7.865533395659731	-16.0981186212185
2.515676021575927	7.888645803019957	-16.07500620957569
2.520661115646362	7.851482621700143	-16.04831053954256
2.525699853897094	7.868997030255866	-16.02388669254221
2.53067398071289	7.878353955568857	-16.0184231592518
2.536693096160888	7.893003132579641	-16.00411062354495
2.545691013336181	7.893003132579641	-16.00411062354495
2.550704002380371	7.909705657473254	-15.98774388290482
2.554703950881958	7.909705657473254	-15.98774388290482
2.560703992843628	7.905538535535888	-15.95228852896956
2.567711114883423	7.897094728553209	-15.9196231764234
2.572696208953857	8.077294309210632	-16.09877414826487
2.577677965164184	8.077294309210632	-16.09877414826487
2.582695960998535	8.210582134084916	-16.21701243371175
2.588706016540527	8.223076522731622	-16.20451808403955
2.596726179122925	8.234221794266668	-16.20179502378717
2.60169506072998	8.234221794266668	-16.20179502378717
2.605681896209717	8.204647890463402	-16.17483849414631
2.609677076339721	8.204647890463402	-16.17483849414631
2.614677190780639	8.159753630494414	-16.13293482700826
2.618678092956543	8.165854892940635	-16.12129274858505
2.623672246932983	8.08869870945496	-16.03790084338174
2.630666971206665	8.08869870945496	-16.03790084338174
2.637659072875976	8.08869870945496	-16.03790084338174
2.642674922943115	8.08869870945496	-16.03790084338174
2.648674011230468	8.115061826100462	-16.03300056271878
2.654669046401977	8.115061826100462	-16.03300056271878
2.659671068191528	8.572295626487527	-16.51039664463165
2.663670063018799	8.572295626487527	-16.51039664463165
2.670669794082641	8.895540269970326	-16.83524416155165
2.677670001983642	8.895540269970326	-16.83524416155165
2.683662891387939	9.09469105740566	-17.04213983350132
2.689696073532104	9.159647620641591	-17.10709637794899
2.698669910430908	9.159647620641591	-17.10709637794899
2.703649044036865	9.159647620641591	-17.10709637794899
2.708649158477783	9.159647620641591	-17.10709637794899
2.713667869567871	9.159647620641591	-17.10709637794899
2.719663858413696	9.159647620641591	-17.10709637794899
2.72366714477539	9.250954588867369	-17.21451442501801
2.729666233062744	9.250954588867369	-17.21451442501801
2.733664989471435	9.430607851039005	-17.39855964545429
2.739665031433105	9.430607851039005	-17.39855964545429
2.743669033050537	9.78661237981504	-17.75972739484535
2.749666213989258	9.78661237981504	-17.75972739484535
2.756664037704467	10.95196179815227	-18.92985591689526
2.761667966842651	10.95196179815227	-18.92985591689526
2.765666246414184	11.4560869862234	-19.4515830125769
2.771663904190063	11.4560869862234	-19.4515830125769
2.775665998458862	11.80050062657488	-19.81202288818986
2.779836893081665	11.80050062657488	-19.81202288818986
2.785668849945068	11.90730369289499	-19.93579825576457
2.79267406463623	11.88537868488147	-19.95772326499951
2.798671960830688	11.98599789169192	-20.0699697604781
2.804663181304931	12.35514346917582	-20.43911545410969
2.812668085098266	12.35514346917582	-20.43911545410969
2.81866192817688	12.80065504038831	-20.90281670240513
2.822669982910156	12.78951561205999	-20.91395614199059
2.827683925628662	13.34213088627047	-21.47246684002915
2.831746101379394	13.32339963260266	-21.49119810995882
2.836662054061889	14.06084740400009	-22.23853246033865
2.842680215835571	14.71348601693023	-22.89117101423816
2.847667932510376	14.66726568627206	-22.95842033394879
2.852675914764404	15.18547937208385	-23.49977030396423
2.856667995452881	15.18548130773557	-23.65218382958176
2.861662149429321	15.54817641694865	-24.0148820266651
2.866662979125976	15.54817925629734	-24.23621605595873
2.870712995529175	15.86304142190492	-24.55108258359635
2.876677989959717	15.86304464804234	-24.80569213545031
2.883686065673828	16.55480188221555	-25.49745458490649
2.889665126800537	16.52269131505711	-25.52956515513862
2.894665956497192	16.55480607691324	-25.92083211533042
2.898667097091675	17.1765975533984	-26.54263086245853
2.907700061798095	17.17660047295672	-26.7790253826275
2.911661863327026	17.79196645616564	-27.39439608396059
2.917669057846069	17.79196946051313	-27.63913369566529
2.921667098999023	18.26441950681554	-28.11158848127537
2.927661180496216	18.62546679245767	-28.47263570844764
2.935667037963867	18.60777683416236	-28.49032569619332
2.943665027618408	18.6254678483625	-28.61076026754219
2.948662042617798	18.9494198196931	-28.93471411225598
2.952656984329223	18.91937857020336	-28.96475539027609
2.956660032272339	19.26131729026251	-29.32188631398777
2.960659980773926	19.26132126868858	-29.64878243933479
2.967658996582031	19.26132142466283	-29.9892529772663
2.977679014205932	19.26131979587858	-30.19298370972749
2.982659816741943	19.61503402175022	-30.54670183884078
2.986663103103637	19.57326963913929	-30.58846625117735
2.991661071777343	19.99918463329726	-31.03542608432959
2.995661973953247	19.9991869819195	-31.22707317911926
3.003661155700683	20.50906964596788	-31.73695960799522
3.01065993309021	20.5090729513463	-32.00536830347077
3.01966118812561	20.50907542953848	-32.48512252087224
3.024675846099853	21.36373655792556	-33.33979290165316
3.028685808181762	21.36374459754569	-34.03336323607319
3.034680843353271	21.99324942089284	-34.66288074761509
3.038657188415527	21.99325886451387	-35.46918779598365
3.043664932250976	22.54499205594172	-36.02093545575876
3.047657012939453	22.92558314095041	-36.40152643893374
3.0536630153656	22.92558733818156	-36.74871272990602
3.057661056518554	23.25998914727575	-37.08312095823222
3.062682867050171	23.25999620383039	-37.67871133103357
3.067659139633178	23.82938575239036	-38.24811175872726
3.072690010070801	23.82939350016523	-38.90818847492579
3.078660011291504	23.94651867235567	-39.02532537904714
3.082659006118774	23.94652584897532	-39.63896265485099
3.090658903121948	23.94652552930852	-40.22666541942139
3.094659805297851	24.06366721452625	-40.3438175314976
3.100661993026733	24.06367404351246	-40.93052648537228
3.105659961700439	24.41237114717079	-41.27923405792143
3.11066198348999	24.41237722003325	-41.7970181383478
3.11565613746643	24.86760840134063	-42.25225865123321
